<svg id="Layer_1" data-name="Layer 1" xmlns="http://www.w3.org/2000/svg" xmlns:xlink="http://www.w3.org/1999/xlink" viewBox="0 0 531.65 75.18"><defs><style>.cls-1{fill:none;}.cls-2{fill:#202323;}.cls-3{clip-path:url(#clip-path);}</style><clipPath id="clip-path"><rect class="cls-1" width="531.65" height="75.18"/></clipPath></defs><path class="cls-2" d="M5.23,4.19h521.2V71H5.23ZM0,0V75.18H531.65V0Z"/><g class="cls-3"><path class="cls-2" d="M492,54.89V50h-9.64V40h8.4V35.45h-8.4v-10H492V20.88H477.51v34Zm-22.45,0V50h-9.65V20.88h-4.87v34ZM438.25,25.47a4.47,4.47,0,0,1,2.19.43,2.66,2.66,0,0,1,1.15,1.24A5,5,0,0,1,442,29c0,.72.05,1.48.05,2.27s0,1.64-.07,2.34a4.34,4.34,0,0,1-.46,1.77,2.7,2.7,0,0,1-1.19,1.2,5.08,5.08,0,0,1-2.29.42h-2.34V25.47Zm-2.53,29.42V41.61h2.48a9.07,9.07,0,0,0,4.4-.93,7.16,7.16,0,0,0,2.67-2.6,8.16,8.16,0,0,0,1.12-3,23.69,23.69,0,0,0,.26-3.87,19.53,19.53,0,0,0-.47-4.85,7.24,7.24,0,0,0-1.72-3.13,6.76,6.76,0,0,0-2.77-1.86,10.89,10.89,0,0,0-3.54-.53h-7.31v34Zm-25.42-26a3.26,3.26,0,0,1,1-2.61,3.66,3.66,0,0,1,4.64,0,3.26,3.26,0,0,1,1,2.61v18a3.26,3.26,0,0,1-1,2.6,3.66,3.66,0,0,1-4.64,0,3.26,3.26,0,0,1-1-2.6Zm-4.87,18a8.52,8.52,0,0,0,.72,3.67,7.31,7.31,0,0,0,1.91,2.54,7.61,7.61,0,0,0,2.6,1.57,8.42,8.42,0,0,0,5.88,0,8.23,8.23,0,0,0,2.65-1.57,7.71,7.71,0,0,0,1.86-2.54,8.52,8.52,0,0,0,.72-3.67v-18a8.61,8.61,0,0,0-.72-3.63,8,8,0,0,0-1.86-2.63,8.55,8.55,0,0,0-8.53-1.53,8,8,0,0,0-2.6,1.53,7.57,7.57,0,0,0-1.91,2.63,8.61,8.61,0,0,0-.72,3.63Zm-7.64,8V50h-9.65V40h8.41V35.45h-8.41v-10h9.65V20.88H383.27v34ZM366.45,25.47a4.51,4.51,0,0,1,2.2.43,2.71,2.71,0,0,1,1.15,1.24,5.14,5.14,0,0,1,.43,1.88c0,.72,0,1.48,0,2.27s0,1.64-.07,2.34a4.51,4.51,0,0,1-.45,1.77,2.78,2.78,0,0,1-1.2,1.2,5.06,5.06,0,0,1-2.29.42h-2.34V25.47Zm-2.53,29.42V41.61h2.48a9,9,0,0,0,4.4-.93,7.19,7.19,0,0,0,2.68-2.6,8.35,8.35,0,0,0,1.12-3,24.87,24.87,0,0,0,.26-3.87,19.46,19.46,0,0,0-.48-4.85,7.24,7.24,0,0,0-1.72-3.13,6.7,6.7,0,0,0-2.77-1.86,10.87,10.87,0,0,0-3.53-.53h-7.31v34ZM336.31,35.56h-4.87v4.87h4.87ZM300.06,25.47a3.47,3.47,0,0,1,3,1.09,5.18,5.18,0,0,1,.81,3.11V46.05a5,5,0,0,1-.86,3.23,3.61,3.61,0,0,1-2.91,1h-2.25V25.47Zm-.34,29.42q4.35,0,6.67-2.27t2.31-7V29.67a9.08,9.08,0,0,0-2.17-6.5q-2.17-2.3-6.38-2.29h-7.21v34Zm-27.32-26a3.23,3.23,0,0,1,1-2.61,3.64,3.64,0,0,1,4.63,0,3.26,3.26,0,0,1,1,2.61v18a3.26,3.26,0,0,1-1,2.6,3.64,3.64,0,0,1-4.63,0,3.22,3.22,0,0,1-1-2.6Zm-4.87,18a8.67,8.67,0,0,0,.71,3.67,7.43,7.43,0,0,0,1.91,2.54,7.75,7.75,0,0,0,2.61,1.57,8.39,8.39,0,0,0,5.87,0,8.12,8.12,0,0,0,2.65-1.57,7.6,7.6,0,0,0,1.87-2.54,8.52,8.52,0,0,0,.71-3.67v-18a8.62,8.62,0,0,0-.71-3.63,7.88,7.88,0,0,0-1.87-2.63,8.53,8.53,0,0,0-8.52-1.53,8.16,8.16,0,0,0-2.61,1.53,7.7,7.7,0,0,0-1.91,2.63,8.77,8.77,0,0,0-.71,3.63Zm-20.26-18a3.26,3.26,0,0,1,1-2.61,3.66,3.66,0,0,1,4.64,0,3.26,3.26,0,0,1,1,2.61v18a3.25,3.25,0,0,1-1,2.6,3.66,3.66,0,0,1-4.64,0,3.26,3.26,0,0,1-1-2.6Zm-4.87,18a8.52,8.52,0,0,0,.72,3.67A7.31,7.31,0,0,0,245,53.08a7.61,7.61,0,0,0,2.6,1.57,8.42,8.42,0,0,0,5.88,0,8.23,8.23,0,0,0,2.65-1.57A7.71,7.71,0,0,0,258,50.54a8.52,8.52,0,0,0,.72-3.67v-18a8.61,8.61,0,0,0-.72-3.63,8,8,0,0,0-1.86-2.63,8.55,8.55,0,0,0-8.53-1.53,8,8,0,0,0-2.6,1.53,7.57,7.57,0,0,0-1.91,2.63,8.61,8.61,0,0,0-.72,3.63Zm-17.29,8V40.37h8.41V35.78h-8.41V25.47h9.65V20.88H220.24v34ZM197.5,35.56h-4.87v4.87h4.87ZM171.32,54.89V50h-9.65V40h8.41V35.45h-8.41v-10h9.65V20.88H156.8v34Zm-22.45,0V50h-9.65V40h8.41V35.45h-8.41v-10h9.65V20.88H134.35v34Zm-32.1,0V40.37h8.41V35.78h-8.41V25.47h9.65V20.88H111.9v34Zm-22.45,0V40.37h8.41V35.78H94.32V25.47H104V20.88H89.45v34Zm-25.41-26a3.26,3.26,0,0,1,1-2.61,3.64,3.64,0,0,1,4.63,0,3.26,3.26,0,0,1,1,2.61v18a3.26,3.26,0,0,1-1,2.6,3.64,3.64,0,0,1-4.63,0,3.26,3.26,0,0,1-1-2.6ZM64,46.87a8.67,8.67,0,0,0,.71,3.67,7.33,7.33,0,0,0,1.92,2.54,7.61,7.61,0,0,0,2.6,1.57,8.39,8.39,0,0,0,5.87,0,8.27,8.27,0,0,0,2.66-1.57,7.71,7.71,0,0,0,1.86-2.54,8.52,8.52,0,0,0,.71-3.67v-18a8.62,8.62,0,0,0-.71-3.63,8,8,0,0,0-1.86-2.63,8.74,8.74,0,0,0-2.66-1.53,8.39,8.39,0,0,0-5.87,0,8,8,0,0,0-2.6,1.53,7.59,7.59,0,0,0-1.92,2.63A8.77,8.77,0,0,0,64,28.91ZM50.71,45.19v1.68a4.31,4.31,0,0,1-.29,1.67,3.08,3.08,0,0,1-.71,1.05,3.12,3.12,0,0,1-1,.55,3.6,3.6,0,0,1-1,.16,2.53,2.53,0,0,1-2.31-1,4.51,4.51,0,0,1-.65-2.48V29.43a6,6,0,0,1,.6-2.84,2.47,2.47,0,0,1,2.41-1.12,2.64,2.64,0,0,1,2.2,1.05A3.93,3.93,0,0,1,50.71,29v1.63h4.87V28.71A9,9,0,0,0,55,25.44a8,8,0,0,0-1.65-2.6,7.4,7.4,0,0,0-5.59-2.25,8.36,8.36,0,0,0-3.22.6A7.51,7.51,0,0,0,42,22.84a7.33,7.33,0,0,0-1.63,2.48,8.35,8.35,0,0,0-.57,3.11V47.15A8.8,8.8,0,0,0,40.56,51a7.35,7.35,0,0,0,1.89,2.46A6.78,6.78,0,0,0,45,54.8a11.06,11.06,0,0,0,2.82.38,7.2,7.2,0,0,0,3-.65,8,8,0,0,0,2.46-1.74A8.28,8.28,0,0,0,55,50.28a7.69,7.69,0,0,0,.59-3V45.19Z"/></g></svg>