<svg width="36" height="36" viewBox="0 0 36 36" fill="none" xmlns="http://www.w3.org/2000/svg">
<g id="local_mall">
<mask id="mask0_18_480" style="mask-type:alpha" maskUnits="userSpaceOnUse" x="0" y="0" width="36" height="36">
<rect id="Bounding box" width="36" height="36" fill="#D9D9D9"/>
</mask>
<g mask="url(#mask0_18_480)">
<path id="local_mall_2" d="M7.5 33C6.675 33 5.96875 32.7063 5.38125 32.1188C4.79375 31.5312 4.5 30.825 4.5 30V12C4.5 11.175 4.79375 10.4688 5.38125 9.88125C5.96875 9.29375 6.675 9 7.5 9H10.5C10.5 6.925 11.2313 5.15625 12.6938 3.69375C14.1562 2.23125 15.925 1.5 18 1.5C20.075 1.5 21.8438 2.23125 23.3063 3.69375C24.7688 5.15625 25.5 6.925 25.5 9H28.5C29.325 9 30.0312 9.29375 30.6188 9.88125C31.2063 10.4688 31.5 11.175 31.5 12V30C31.5 30.825 31.2063 31.5312 30.6188 32.1188C30.0312 32.7063 29.325 33 28.5 33H7.5ZM7.5 30H28.5V12H7.5V30ZM18 21C20.075 21 21.8438 20.2688 23.3063 18.8063C24.7688 17.3438 25.5 15.575 25.5 13.5H22.5C22.5 14.75 22.0625 15.8125 21.1875 16.6875C20.3125 17.5625 19.25 18 18 18C16.75 18 15.6875 17.5625 14.8125 16.6875C13.9375 15.8125 13.5 14.75 13.5 13.5H10.5C10.5 15.575 11.2313 17.3438 12.6938 18.8063C14.1562 20.2688 15.925 21 18 21ZM13.5 9H22.5C22.5 7.75 22.0625 6.6875 21.1875 5.8125C20.3125 4.9375 19.25 4.5 18 4.5C16.75 4.5 15.6875 4.9375 14.8125 5.8125C13.9375 6.6875 13.5 7.75 13.5 9Z" fill="#1C1B1F"/>
</g>
</g>
</svg>
