<svg width="39" height="39" viewBox="0 0 39 39" fill="none" xmlns="http://www.w3.org/2000/svg">
<g id="Group 5">
<path id="Vector" d="M35.6768 0.887695H4.09976C2.5738 0.887695 1.33677 2.12044 1.33677 3.6411V35.1086C1.33677 36.6293 2.5738 37.862 4.09976 37.862H35.6768C37.2027 37.862 38.4398 36.6293 38.4398 35.1086V3.6411C38.4398 2.12044 37.2027 0.887695 35.6768 0.887695Z" fill="#F29025" stroke="#F29025"/>
<path id="Vector_2" d="M24.116 19.518H21.7247V28.1882H18.1016V19.518H16.3785V16.4709H18.1016V14.4992C18.1016 13.0891 18.7784 10.8811 21.757 10.8811L24.4407 10.8922V13.8499H22.4935C22.1741 13.8499 21.7249 14.0079 21.7249 14.6805V16.4737H24.4326L24.116 19.518Z" fill="white"/>
</g>
</svg>
