<svg width="256" height="30" viewBox="0 0 256 30" fill="none" xmlns="http://www.w3.org/2000/svg">
<g id="icon-payment 1" clip-path="url(#clip0_18_452)">
<path id="Vector" d="M4.46428 0C2.1597 0 0.286011 1.86719 0.286011 4.16378V25.8154C0.286011 28.112 2.1597 29.9792 4.46428 29.9792H37.8904C40.195 29.9792 42.0687 28.112 42.0687 25.8154V4.16378C42.0687 1.86719 40.195 0 37.8904 0H4.46428ZM25.0945 10.3313C26.2336 10.3313 27.4186 10.7998 27.4186 10.7998L27.0008 12.8296C27.0008 12.8296 26.0999 12.2311 25.3034 12.2311C24.076 12.2311 23.632 12.6312 23.632 13.168C23.632 14.2186 27.053 14.4041 27.053 16.7592C27.053 18.7175 24.6146 20.0642 22.8486 20.0642C21.0826 20.0642 20.1589 19.5437 20.1589 19.5437L20.6028 17.5659C20.6028 17.5659 21.5266 18.1124 22.9531 18.1124C24.3763 18.1124 24.5721 17.5073 24.5721 17.2536C24.5721 15.7508 21.1773 16.1704 21.1773 13.246C21.1773 11.6293 22.5026 10.3313 25.0945 10.3313ZM14.0482 10.5135H16.6857L12.9253 19.778H10.2094L8.22472 12.2832C8.22472 12.2832 10.3106 13.3436 11.5934 16.2127C11.649 16.5608 11.8024 17.1235 11.8024 17.1235L14.0482 10.5135ZM17.6519 10.5135H20.1589L18.6703 19.778H16.1896L17.6519 10.5135ZM31.0485 10.5135H33.6338L35.5401 19.778H33.2943L33.0331 18.4507H29.9517L29.4555 19.778H27.0008L31.0485 10.5135ZM5.50884 10.5396H9.32151C10.2943 10.5396 10.6533 11.4504 10.6533 11.4504L11.489 15.6662C10.3596 12.0359 5.50884 10.5396 5.50884 10.5396ZM31.9886 13.1939L30.6306 16.6811H32.6676L31.9886 13.1939Z" fill="#545454"/>
<path id="Vector_2" d="M111.428 0C109.123 0 107.25 1.86719 107.25 4.16378V25.8154C107.25 28.112 109.123 29.9792 111.428 29.9792H144.854C147.159 29.9792 149.032 28.112 149.032 25.8154V4.16378C149.032 1.86719 147.159 0 144.854 0H111.428ZM114.405 10.7477H116.729L119.785 17.5659V10.7477H122.526L124.667 15.51L126.809 10.7477H129.603V17.8261H127.853V12.6474L125.478 17.8261H123.884L121.534 12.5694V17.8261H118.009L117.33 16.2647H113.83L113.151 17.8261H111.297L114.405 10.7477ZM131.901 10.7477H138.796L140.728 12.9598L142.738 10.7477H144.959L141.825 14.2089L144.959 17.8522H142.738L140.676 15.4841L138.561 17.8261H131.901V10.7477ZM115.528 12.2311L114.483 14.7294H116.625L115.528 12.2311ZM133.625 12.2571V13.5844H137.49V14.9375H133.625V16.3429H137.672L139.579 14.2089L137.881 12.2832L133.625 12.2571Z" fill="#545454"/>
<path id="Vector_3" d="M164.91 0C162.606 0 160.731 1.86719 160.731 4.16378V25.8154C160.731 28.112 162.606 29.9792 164.91 29.9792H198.336C200.64 29.9792 202.514 28.112 202.514 25.8154V4.16378C202.514 1.86719 200.64 0 198.336 0H164.91ZM178.437 12.4133C178.871 12.4133 179.247 12.5271 179.69 12.7515V13.9226C179.269 13.5127 178.891 13.3501 178.411 13.3501C177.464 13.3501 176.714 14.1308 176.714 15.1197C176.714 16.1639 177.445 16.8893 178.463 16.8893C178.92 16.8893 179.286 16.7202 179.69 16.3168V17.5138C179.23 17.7286 178.845 17.8001 178.411 17.8001C176.873 17.8001 175.669 16.6356 175.669 15.1197C175.669 13.6201 176.906 12.4133 178.437 12.4133ZM173.658 12.4393C174.226 12.4393 174.738 12.6344 175.173 13.0118L174.65 13.7145C174.386 13.4217 174.145 13.2981 173.841 13.2981C173.407 13.2981 173.084 13.5453 173.084 13.8706C173.084 14.1504 173.26 14.2967 173.867 14.5211C175.016 14.9408 175.355 15.3149 175.355 16.1346C175.355 17.1333 174.627 17.8261 173.58 17.8261C172.813 17.8261 172.244 17.5171 171.778 16.8373L172.431 16.2127C172.663 16.6616 173.048 16.8893 173.527 16.8893C173.978 16.8893 174.311 16.5803 174.311 16.1607C174.311 15.6629 173.867 15.5589 173.318 15.3539C172.375 14.9994 172.039 14.6317 172.039 13.9226C172.039 13.0768 172.741 12.4393 173.658 12.4393ZM182.693 12.4393C184.186 12.4393 185.383 13.6331 185.383 15.1197C185.383 16.6063 184.186 17.8261 182.693 17.8261C181.201 17.8261 179.978 16.6063 179.978 15.1197C179.978 13.6331 181.201 12.4393 182.693 12.4393ZM165.667 12.5434H167.155C168.794 12.5434 169.924 13.5974 169.924 15.1197C169.924 15.9231 169.408 17.696 167.155 17.696H165.667V12.5434ZM170.393 12.5434H171.412V17.696H170.393V12.5434ZM185.2 12.5434H186.297L187.681 16.0045L189.091 12.5434H190.188L187.942 17.8261H187.394L185.2 12.5434ZM190.632 12.5434H193.504V13.4022H191.65V14.5472H193.426V15.432H191.65V16.8112H193.504V17.696H190.632V12.5434ZM194.157 12.5434H195.672C196.838 12.5434 197.501 13.0866 197.501 14.0527C197.501 14.8432 197.085 15.3799 196.325 15.5361L197.944 17.696H196.69L195.306 15.6142H195.176V17.696H194.157V12.5434ZM195.176 13.3501V14.9115H195.463C196.107 14.9115 196.456 14.6221 196.456 14.1048C196.456 13.6039 196.12 13.3501 195.489 13.3501H195.176ZM166.686 13.4022V16.8112H166.947C168.765 16.8112 168.879 15.5068 168.879 15.1197C168.879 14.3098 168.4 13.4022 167.025 13.4022H166.686Z" fill="#545454"/>
<path id="Vector_4" d="M252.987 0H217.221C215.56 0 214.213 1.34221 214.213 2.99792V26.9813C214.213 28.637 215.56 29.9792 217.221 29.9792H252.987C254.649 29.9792 255.995 28.637 255.995 26.9813V2.99792C255.995 1.34221 254.649 0 252.987 0Z" fill="#545454"/>
<path id="Vector_5" d="M245.339 13.0564C244.503 13.0564 243.841 13.2775 243.336 13.3784L243.179 14.6453C243.433 14.5242 244.23 14.3038 244.892 14.2829C245.554 14.263 245.942 14.4037 245.807 14.967C243.841 14.967 242.518 15.3686 242.246 16.6358C241.857 18.8076 244.249 18.7476 245.203 17.8022L245.087 18.3247H246.837L247.595 14.8655C247.906 13.398 246.565 13.0365 245.339 13.0564ZM245.456 16.5956C245.358 17.058 244.989 17.2591 244.542 17.2796C244.153 17.2996 243.802 16.957 244.056 16.5551C244.25 16.2135 244.795 16.1331 245.126 16.1331C245.261 16.1331 245.417 16.1331 245.554 16.1331C245.514 16.2939 245.495 16.4346 245.456 16.5956Z" fill="#242424"/>
<path id="Vector_6" d="M249.094 11.6885L247.645 18.3247H249.423L250.89 11.6885H249.094Z" fill="#242424"/>
<path id="Vector_7" d="M240.922 11.708H237.666L236.223 18.324H238.114L238.602 16.1322H239.947C241.273 16.1322 242.365 15.3279 242.657 13.9602C242.989 12.4118 241.858 11.708 240.922 11.708ZM240.865 13.9602C240.747 14.4629 240.24 14.8648 239.753 14.8648H238.875L239.265 13.0551H240.201C240.688 13.0554 240.981 13.4574 240.865 13.9602Z" fill="#242424"/>
<path id="Vector_8" d="M228.288 13.0559C227.462 13.0559 226.808 13.277 226.327 13.3779L226.174 14.6446C226.405 14.5235 227.193 14.3031 227.847 14.2822C228.499 14.2623 228.885 14.403 228.768 14.9663C226.828 14.9663 225.521 15.3679 225.252 16.6351C224.867 18.8069 227.231 18.7469 228.154 17.8015L228.038 18.324H229.787L230.537 14.8648C230.844 13.3975 229.498 13.0361 228.288 13.0559ZM228.422 16.5952C228.326 17.0576 227.942 17.2587 227.501 17.2792C227.116 17.2992 226.789 16.9566 227.039 16.5546C227.231 16.213 227.769 16.1327 228.076 16.1327C228.231 16.1327 228.365 16.1327 228.52 16.1327C228.479 16.2935 228.441 16.4342 228.422 16.5952Z" fill="#242424"/>
<path id="Vector_9" d="M231.298 13.1509H233.047L233.329 16.2318L235.04 13.1509H236.845L232.689 20.5244H230.735L232.012 18.3569L231.298 13.1509Z" fill="#242424"/>
<path id="Vector_10" d="M223.938 11.708H220.674L219.227 18.324H221.143L221.611 16.1321H222.98C224.29 16.1321 225.385 15.3279 225.678 13.9602C226.011 12.4117 224.896 11.708 223.938 11.708ZM223.88 13.9602C223.762 14.4628 223.274 14.8647 222.785 14.8647H221.886L222.296 13.055H223.235C223.704 13.0554 224.016 13.4574 223.88 13.9602Z" fill="#242424"/>
<path id="Vector_11" d="M251.274 12.5465V11.7637H250.981V11.6587H251.687V11.7637H251.392V12.5465H251.274Z" fill="#242424"/>
<path id="Vector_12" d="M251.803 12.5465V11.6587H251.98L252.192 12.2869C252.211 12.3453 252.225 12.3887 252.234 12.4175C252.244 12.3855 252.26 12.338 252.281 12.2758L252.496 11.6587H252.654V12.5465H252.541V11.8033L252.281 12.5465H252.175L251.917 11.7909V12.5465H251.803Z" fill="#242424"/>
<path id="Vector_13" d="M92.5421 0H56.7761C55.1146 0 53.7678 1.34221 53.7678 2.99792V26.9813C53.7678 28.637 55.1146 29.9792 56.7761 29.9792H92.5421C94.2036 29.9792 95.5504 28.637 95.5504 26.9813V2.99792C95.5504 1.34221 94.2036 0 92.5421 0Z" fill="#545454"/>
<path id="Vector_14" d="M69.2775 6.99512C64.9654 6.99512 61.4558 10.5822 61.4558 14.9896C61.4558 19.3969 64.9654 22.984 69.2775 22.984C71.2207 22.984 73.0865 22.2387 74.492 20.9354C75.877 22.2034 77.7042 22.984 79.7065 22.984C84.0186 22.984 87.5282 19.3969 87.5282 14.9896C87.5282 10.5822 84.0186 6.99512 79.7065 6.99512C77.7042 6.99512 75.877 7.77583 74.492 9.0437C73.0865 7.74043 71.2207 6.99512 69.2775 6.99512ZM79.7065 8.06105C83.4441 8.06105 86.4853 11.1693 86.4853 14.9896C86.4853 18.8098 83.4441 21.9181 79.7065 21.9181C77.9486 21.9181 76.3497 21.229 75.1438 20.1027C75.3373 19.8216 75.5655 19.5343 75.7956 19.2533H74.3779C74.2455 19.0805 74.1193 18.9056 74.0031 18.7203H76.1052C76.313 18.3997 76.4698 18.0271 76.6266 17.6544H73.4491C73.3778 17.4795 73.3106 17.3047 73.2536 17.1214H76.7407C76.8446 16.8008 76.8833 16.4282 76.9363 16.0555H73.0091C72.9826 15.8806 72.9745 15.7016 72.9602 15.5225H77.0503V14.4566H72.9602C72.9745 14.2776 72.9826 14.0985 73.0091 13.9236H77.0503C76.9974 13.551 76.9424 13.1783 76.8385 12.8577H73.2536C73.3106 12.6745 73.3778 12.4996 73.4491 12.3247H76.5778C76.421 11.9521 76.2641 11.5794 76.0563 11.2589H74.0031C74.1193 11.0736 74.2455 10.8987 74.3779 10.7258H75.7467C75.5736 10.4615 75.3556 10.1908 75.1112 9.92641C76.3212 8.77721 77.9282 8.06105 79.7065 8.06105Z" fill="#242424"/>
</g>
<defs>
<clipPath id="clip0_18_452">
<rect width="255.71" height="29.9792" fill="white" transform="translate(0.286011)"/>
</clipPath>
</defs>
</svg>
