<svg width="40" height="39" viewBox="0 0 40 39" fill="none" xmlns="http://www.w3.org/2000/svg">
<g id="Group 6">
<path id="Vector" d="M35.8327 0.887695H4.25569C2.72974 0.887695 1.49271 2.12044 1.49271 3.6411V35.1086C1.49271 36.6293 2.72974 37.862 4.25569 37.862H35.8327C37.3587 37.862 38.5957 36.6293 38.5957 35.1086V3.6411C38.5957 2.12044 37.3587 0.887695 35.8327 0.887695Z" fill="#F29025" stroke="#F29025"/>
<path id="Vector_2" d="M16.4246 10.7212C13.6321 10.7212 11.3605 12.9869 11.3605 15.7705V22.9818C11.3605 25.7646 13.6341 28.0283 16.4274 28.0283H23.6638C26.4563 28.0283 28.7279 25.7626 28.7279 22.979V15.7677C28.7279 12.9849 26.4542 10.7212 23.6609 10.7212H16.4246ZM25.1097 13.6057C25.5091 13.6057 25.8333 13.9288 25.8333 14.3268C25.8333 14.7249 25.5091 15.048 25.1097 15.048C24.7102 15.048 24.386 14.7249 24.386 14.3268C24.386 13.9288 24.7102 13.6057 25.1097 13.6057ZM20.0442 15.048C22.4387 15.048 24.386 16.9885 24.386 19.3748C24.386 21.7609 22.4387 23.7015 20.0442 23.7015C17.6497 23.7015 15.7023 21.7609 15.7023 19.3748C15.7023 16.9885 17.6497 15.048 20.0442 15.048ZM20.0442 16.4902C19.2765 16.4902 18.5403 16.7941 17.9974 17.3351C17.4546 17.876 17.1496 18.6097 17.1496 19.3748C17.1496 20.1398 17.4546 20.8735 17.9974 21.4144C18.5403 21.9554 19.2765 22.2593 20.0442 22.2593C20.8119 22.2593 21.5481 21.9554 22.0909 21.4144C22.6338 20.8735 22.9388 20.1398 22.9388 19.3748C22.9388 18.6097 22.6338 17.876 22.0909 17.3351C21.5481 16.7941 20.8119 16.4902 20.0442 16.4902Z" fill="white"/>
</g>
</svg>
