<svg width="39" height="39" viewBox="0 0 39 39" fill="none" xmlns="http://www.w3.org/2000/svg">
<g id="Group 4">
<path id="Vector" d="M35.521 0.887695H3.94396C2.418 0.887695 1.18097 2.12044 1.18097 3.6411V35.1086C1.18097 36.6293 2.418 37.862 3.94396 37.862H35.521C37.0469 37.862 38.284 36.6293 38.284 35.1086V3.6411C38.284 2.12044 37.0469 0.887695 35.521 0.887695Z" fill="#F29025" stroke="#F29025"/>
<path id="Vector_2" d="M28.4082 19.9629V26.0337H24.8012V20.3697C24.8012 18.9476 24.2804 17.9764 22.9744 17.9764C21.9777 17.9764 21.3856 18.6303 21.1242 19.2634C21.0292 19.4897 21.0047 19.8039 21.0047 20.1212V26.0333H17.3975C17.3975 26.0333 17.4459 16.4406 17.3975 15.4477H21.0051V16.9477C20.9978 16.9596 20.9875 16.9711 20.9811 16.9824H21.0051V16.9477C21.4844 16.2281 22.3393 15.1991 24.2559 15.1991C26.629 15.1991 28.4082 16.712 28.4082 19.9629ZM13.6239 10.345C12.3901 10.345 11.5828 11.1353 11.5828 12.1737C11.5828 13.19 12.3666 14.0032 13.5766 14.0032H13.6C14.8581 14.0032 15.6404 13.19 15.6404 12.1737C15.6164 11.1353 14.8581 10.345 13.6239 10.345ZM11.7972 26.0337H15.4031V15.4477H11.7972V26.0337Z" fill="white"/>
</g>
</svg>
