<svg width="17" height="21" viewBox="0 0 17 21" fill="none" xmlns="http://www.w3.org/2000/svg">
<path id="Vector" d="M14.2603 6.99514H13.2575V4.99653C13.2575 2.23845 11.0113 0 8.24358 0C5.4759 0 3.22966 2.23845 3.22966 4.99653V6.99514H2.22688C1.12382 6.99514 0.221313 7.89452 0.221313 8.99376V18.9868C0.221313 20.0861 1.12382 20.9854 2.22688 20.9854H14.2603C15.3633 20.9854 16.2659 20.0861 16.2659 18.9868V8.99376C16.2659 7.89452 15.3633 6.99514 14.2603 6.99514ZM8.24358 15.9889C7.14052 15.9889 6.23801 15.0895 6.23801 13.9903C6.23801 12.8911 7.14052 11.9917 8.24358 11.9917C9.34664 11.9917 10.2491 12.8911 10.2491 13.9903C10.2491 15.0895 9.34664 15.9889 8.24358 15.9889ZM11.3522 6.99514H5.13495V4.99653C5.13495 3.28772 6.52882 1.89868 8.24358 1.89868C9.95834 1.89868 11.3522 3.28772 11.3522 4.99653V6.99514Z" fill="#545454"/>
</svg>
