<svg width="41" height="41" viewBox="0 0 41 41" fill="none" xmlns="http://www.w3.org/2000/svg">
<g id="Group 8">
<path id="Vector" d="M37.0007 0.887695H3.71678C2.10834 0.887695 0.804443 2.18707 0.804443 3.78994V36.9584C0.804443 38.5613 2.10834 39.8606 3.71678 39.8606H37.0007C38.6091 39.8606 39.913 38.5613 39.913 36.9584V3.78994C39.913 2.18707 38.6091 0.887695 37.0007 0.887695Z" fill="#F29025" stroke="#F29025"/>
<path id="Vector_2" d="M21.9686 24.5696C20.789 24.4805 20.2934 23.9098 19.3683 23.3619C18.8598 25.9648 18.2385 28.46 16.3981 29.7635C15.8293 25.8293 17.2319 22.8744 17.8834 19.738C16.773 17.9142 18.0168 14.2433 20.3588 15.1478C23.241 16.26 17.8633 21.9291 21.4735 22.6372C25.2425 23.3765 26.7812 16.2559 24.4437 13.9399C21.0666 10.596 14.6137 13.8638 15.4071 18.6507C15.6004 19.821 16.8398 20.1762 15.9022 21.791C13.7409 21.324 13.0962 19.6606 13.179 17.443C13.3128 13.8131 16.5217 11.2715 19.7402 10.9198C23.8107 10.4752 27.6311 12.3782 28.1584 16.1143C28.7517 20.3309 26.3208 24.8974 21.9686 24.5696Z" fill="white"/>
</g>
</svg>
