<svg width="107" height="20" viewBox="0 0 107 20" fill="none" xmlns="http://www.w3.org/2000/svg">
<g id="stars-5-1 1" clip-path="url(#clip0_16_259)">
<g id="Group">
<g id="Group_2">
<path id="Vector" d="M0 19.9947H20.0625V0.00535011H0V19.9947ZM21.7344 19.9947H41.7969V0.00535011H21.7344V19.9947ZM43.4688 19.9947H63.5312V0.00535011H43.4688V19.9947ZM65.2031 19.9947H85.2656V0.00535011H65.2031V19.9947ZM86.9375 19.9947H107V0.00535011H86.9375V19.9947Z" fill="#00B67A"/>
</g>
<path id="Vector_2" d="M10.0313 6.52268L13.0824 7.2931L14.3572 3.37852L10.0313 6.52268ZM17.0531 11.5825H11.6823L10.0313 16.6215L8.3803 11.5825H3.0094L7.35627 8.45915L5.7053 3.42017L10.0522 6.5435L12.7272 8.45915L17.0531 11.5825ZM31.7656 6.52268L34.8168 7.2931L36.0916 3.37852L31.7656 6.52268ZM38.7875 11.5825H33.4166L31.7656 16.6215L30.1147 11.5825H24.7438L29.0906 8.45915L27.4397 3.42017L31.7865 6.5435L34.4615 8.45915L38.7875 11.5825ZM53.5 6.52268L56.5512 7.2931L57.826 3.37852L53.5 6.52268ZM60.5219 11.5825H55.151L53.5 16.6215L51.849 11.5825H46.4781L50.825 8.45915L49.174 3.42017L53.5209 6.5435L56.1959 8.45915L60.5219 11.5825ZM75.2344 6.52268L78.2856 7.2931L79.5604 3.37852L75.2344 6.52268ZM82.2563 11.5825H76.8854L75.2344 16.6215L73.5834 11.5825H68.2125L72.5594 8.45915L70.9084 3.42017L75.2553 6.5435L77.9303 8.45915L82.2563 11.5825ZM96.9688 6.52268L100.02 7.2931L101.295 3.37852L96.9688 6.52268ZM103.991 11.5825H98.6197L96.9688 16.6215L95.3178 11.5825H89.9469L94.2938 8.45915L92.6428 3.42017L96.9897 6.5435L99.6647 8.45915L103.991 11.5825Z" fill="white"/>
</g>
</g>
<defs>
<clipPath id="clip0_16_259">
<rect width="107" height="20" fill="white" transform="matrix(1 0 0 -1 0 20)"/>
</clipPath>
</defs>
</svg>
