<svg width="39" height="39" viewBox="0 0 39 39" fill="none" xmlns="http://www.w3.org/2000/svg">
<g id="Group 7">
<path id="Vector" d="M34.9886 0.887695H3.41162C1.88567 0.887695 0.648636 2.12044 0.648636 3.6411V35.1086C0.648636 36.6293 1.88567 37.862 3.41162 37.862H34.9886C36.5146 37.862 37.7516 36.6293 37.7516 35.1086V3.6411C37.7516 2.12044 36.5146 0.887695 34.9886 0.887695Z" fill="#F29025" stroke="#F29025"/>
<path id="Vector_2" d="M28.9626 13.803C28.2509 14.111 27.4853 14.3193 26.6824 14.4123C27.5022 13.9331 28.1313 13.1748 28.4282 12.2697C27.6612 12.7137 26.8112 13.0358 25.9074 13.2094C25.1832 12.4569 24.1515 11.9866 23.0091 11.9866C20.8171 11.9866 19.0393 13.7213 19.0393 15.8601C19.0393 16.1638 19.0745 16.4593 19.1426 16.743C15.8434 16.5815 12.9182 15.0395 10.9601 12.6952C10.6184 13.2672 10.4224 13.9331 10.4224 14.6428C10.4224 15.9864 11.1237 17.1726 12.1883 17.867C11.5379 17.8471 10.9254 17.6729 10.3904 17.382C10.3901 17.3984 10.3901 17.415 10.3901 17.4311C10.3901 19.308 11.759 20.8734 13.5747 21.229C13.242 21.318 12.8906 21.3651 12.5291 21.3651C12.2727 21.3651 12.0244 21.3411 11.7822 21.296C12.2873 22.8345 13.753 23.9545 15.4905 23.986C14.1317 25.0251 12.4202 25.6442 10.5598 25.6442C10.24 25.6442 9.92324 25.626 9.61331 25.5899C11.3692 26.6894 13.4563 27.3304 15.698 27.3304C22.9998 27.3304 26.993 21.428 26.993 16.3088C26.993 16.141 26.9891 15.9737 26.9815 15.8079C27.7577 15.2619 28.4306 14.5799 28.9626 13.803Z" fill="white"/>
</g>
</svg>
