<svg width="36" height="36" viewBox="0 0 36 36" fill="none" xmlns="http://www.w3.org/2000/svg">
<g id="Isolation_Mode" clip-path="url(#clip0_5_44)">
<path id="Vector" d="M36 17.9971C36 27.9399 27.9402 35.9975 17.996 35.996C8.04634 35.9946 -0.00436116 27.9315 1.77247e-06 17.9713C0.0043647 8.0467 8.07434 -0.00472443 18.0124 2.07992e-06C27.9479 0.00472859 35.9996 8.06088 36 17.9971ZM1.60192 18.0113C1.58338 27.0084 8.94328 34.373 17.9724 34.3926C27.0215 34.4123 34.3759 27.0673 34.3955 17.9906C34.4152 9.02764 27.0567 1.61538 18.1251 1.60083C8.96728 1.58593 1.62083 8.8822 1.60229 18.0109L1.60192 18.0113Z" fill="black"/>
<path id="Vector_2" d="M11.4316 19.1115C10.4216 17.2361 10.1864 15.2775 10.7797 13.2397C11.2437 11.6472 12.1657 10.3565 13.4877 9.35958C16.1563 7.34754 19.8481 7.3479 22.5131 9.36212C24.022 10.5027 24.9927 12.0024 25.3756 13.8567C25.7562 15.6986 25.4748 17.4528 24.5633 19.1144C24.6248 19.1594 24.6771 19.1987 24.7298 19.2369C26.7491 20.7061 28.1838 22.6094 28.9881 24.9792C29.1509 25.4592 28.9383 25.9082 28.4918 26.0445C28.0653 26.1747 27.6665 25.9594 27.4828 25.5293C27.2262 24.9287 26.9887 24.315 26.6753 23.7442C25.9529 22.4276 24.952 21.35 23.7202 20.4891C23.6958 20.472 23.6704 20.4567 23.6307 20.4309C22.1055 22.0539 20.2367 22.9421 18.0011 22.9407C15.7713 22.9392 13.904 22.0597 12.3457 20.4022C11.9159 20.7668 11.4691 21.11 11.064 21.4965C9.90351 22.6033 9.07164 23.926 8.54373 25.441C8.37176 25.9347 7.99291 26.1678 7.56134 26.0591C7.08833 25.9398 6.84582 25.4795 7.00543 24.9941C7.30756 24.075 7.72313 23.2097 8.2485 22.3975C9.05783 21.1464 10.0729 20.0917 11.2833 19.2238C11.3316 19.1893 11.3782 19.1518 11.4316 19.1111V19.1115ZM23.9372 15.4091C23.9518 12.1526 21.3006 9.48465 18.0317 9.46574C14.7536 9.44684 12.0824 12.0919 12.0632 15.3833C12.0443 18.5835 14.6391 21.3264 17.9967 21.3329C21.3249 21.3395 23.9423 18.6155 23.9376 15.4091H23.9372Z" fill="black"/>
</g>
<defs>
<clipPath id="clip0_5_44">
<rect width="36" height="35.996" fill="white"/>
</clipPath>
</defs>
</svg>
